<?xml version="1.0" encoding="utf-8"?>
<!-- Generator: Adobe Illustrator 23.0.1, SVG Export Plug-In . SVG Version: 6.00 Build 0)  -->
<svg version="1.1" id="Layer_1" xmlns="http://www.w3.org/2000/svg" xmlns:xlink="http://www.w3.org/1999/xlink" x="0px" y="0px"
	 viewBox="0 0 1920 1080" style="enable-background:new 0 0 1920 1080;" xml:space="preserve">
<style type="text/css">
	.st0{fill:none;}
	.st1{fill:#ED7279;}
</style>
<image style="overflow:visible;" width="2000" height="1500" xlink:href="blackboard.jpg"  transform="matrix(0.9615 0 0 0.72 -3.0395 0)">
</image>
<g>
	
		<image style="overflow:visible;" width="506" height="506" xlink:href="25DE15AE.png"  transform="matrix(0.5861 0 0 0.5861 118.9861 88.5069)">
	</image>
</g>
<g>
	
		<image style="overflow:visible;" width="303" height="529" xlink:href="Picture1.png"  transform="matrix(0.9318 0 0 0.9318 808 533)">
	</image>
</g>
<g>
	<path class="st0" d="M719,292"/>
</g>
<g>
	<image style="overflow:visible;" width="822" height="294" xlink:href="25DE15AA.png"  transform="matrix(1 0 0 1 516 333)">
	</image>
</g>
<g>
	<path class="st1" d="M1626.8,905.2c-0.7-56.2,46.5-104.7,106.5-102.5c53.2,2,100.2,46.9,98,106.7c-2,52.7-46.5,99.9-106.4,97.8
		C1670.6,1005.2,1626.5,960.2,1626.8,905.2z M1728.8,806.4c-54,0.6-99.1,43.4-98.3,100.3c0.8,52.7,43.1,97.4,100.1,96.7
		c52.8-0.7,97.2-43,96.7-99.5C1826.9,850.1,1784,807,1728.8,806.4z"/>
	<path class="st1" d="M1700,863.4c-1.2-1.6-2.3-3.1-2.6-5.7c1.9,2.3,2.6,4.7,4.7,6.6c-0.3-1-0.5-1.7-0.7-2.4
		c0.1-0.1,0.2-0.1,0.3-0.2c1,1.4,1.9,2.8,2.9,4.2c4.2,5.3,10.1,7.6,16.5,8.9c1,0.2,1.9,0.5,2.4,1.3c0.7,1.5,1.9,1.5,3.3,1.6
		c3.6,0.3,7-1,10.6-0.7c7.2,0.7,12.1,5.3,13.1,12.5c1.4,9.6-0.4,18.7-3.9,27.6c-0.8,2.1-3.9,3.2-5.9,2.2c-0.8-0.4-0.8-1.3-1-2
		c-0.7-3.4-1.4-6.8-2.4-10.2c-0.7,3.4-1.6,6.8-2,10.3c-0.3,2.6-2,1.9-3.4,2c-1.7,0.2-2.8-0.2-3.2-2.2c-0.9-4.9-1.9-9.8-3-14.6
		c-0.2-1.2-0.1-2.6-1.8-3c-0.2-0.1-0.4-0.5-0.4-0.8c0-0.5,0.5-0.6,0.9-0.6c2.2,0,4.4,0,6.7,0c0.4,0,0.8,0.3,0.9,0.7
		c0.1,0.5-0.3,0.8-0.6,0.9c-0.7,0.2-1,0.4-0.8,1.3c1.1,4.8,2.1,9.7,3.2,15c0.9-4.5,1.7-8.6,2.4-12.7c0.2-1.4,0.8-3-1.4-3.8
		c-0.8-0.3-0.5-1.2,0.3-1.3c2.3-0.1,4.6-0.2,6.9,0c0.9,0,1.4,0.9,0.3,1.4c-1.3,0.5-0.9,1.2-0.7,2.1c1,4.7,2,9.4,3.2,14.1
		c2.4-7.3,4-14.6,3-22.3c-0.4-3.3-1.2-6.3-2.9-9.2c-2.6-4.4-8.3-6.7-13.1-5.3c-3,0.9-5.1,3.4-5.3,6.3c-0.2,3,1.3,5.8,3.8,7.1
		c1.2,0.6,2.3,0.7,3.1-0.5c0.5-0.8,1-0.5,1.7-0.5c2.2,0.1,3.7,1.1,4.5,3.2c0.4,1,0.1,1.9-0.8,2.5c-1.9,1.3-3.7,0.8-5.5-0.1
		c-0.3-0.1-0.8-0.3-0.7-0.4c0.1-2.4-1.9-2.6-3.4-3.4c-5.1-2.8-5.6-9.3-1.2-14c-2.8-0.3-3.4-0.2-5.5,1.4c-2.1,1.6-4.2,0.5-6.2,0.1
		c-6.4-1.2-16.8-7.1-22.3-12.2c1.2-0.5,1.8,0.8,3,0.9c-1.8-1.6-3.4-3.1-5-4.5c0.5-0.9,1-0.1,1.7-0.3c-1.7-2.5-4.1-4.3-5.8-6.7
		c4.9,3.1,8.4,7.9,12.9,12c0.1-1.2,0-2.6,1.8-1.2c-0.7-1.8-2.6-2.3-2.5-4.1C1700.2,864.2,1700.1,863.8,1700,863.4z M1710.6,875.3
		c-0.7-0.1-1.4-0.1-2.1-0.2c-0.6-0.1-1.1,0.2-1.4,0.7c-0.3,0.4,0.3,0.7,0.6,0.8c0.5,0.2,1.3,0.4,1.6-0.2
		C1709.6,875.7,1709.9,875.2,1710.6,875.3c-0.4-1.1,1.8-2.9-0.8-3.5C1708.9,873.2,1710.4,874.1,1710.6,875.3z M1720.4,880.1
		c1.4-0.2,2.3-0.9,2.8-2.1c0.2-0.5-0.8-1.6-2.2-2.5C1722.4,877.5,1722.3,879,1720.4,880.1z M1702.4,869.9c0.6,0.7,0.7,1.8,1.9,1.7
		c0.2,0,0.6-0.6,0.5-0.7C1704.4,869.9,1703.6,869.6,1702.4,869.9z"/>
	<path class="st1" d="M1686.9,911.7c0-1.7-0.1-3.5,0-5.2c0.2-2.1-0.4-3-2.6-2.8c-0.6,0.1-1.5,0.3-1.5-0.6c0-0.9,0.9-0.6,1.5-0.6
		c3.6,0,7.2,0,10.7,0c0.6,0,1.5-0.3,1.5,0.7c0,0.7-0.8,0.6-1.3,0.6c-1.8-0.1-1.8,1.1-1.8,2.3c0,5.1,0,10.2,0,15.3
		c0,0.7,0.4,1.7-0.7,2c-0.9,0.3-1.1-0.7-1.5-1.2c-0.9-1.4-2-1.6-3.1-0.4c-3,3.1-6.4,3.8-10.4,2.5c-4.4-1.5-7.1-4.8-8.5-9
		c-3-9.2-2.9-18.4,1.5-27.3c1.5-3.1,3.7-5.8,6.7-7.6c2.3-1.4,4.8-2,7.5-1.1c3.2,1,3.8,0.7,4.8-2.5c0.2-0.5-0.2-1.3,0.7-1.2
		c0.8,0.1,0.6,0.8,0.6,1.3c0.2,4.7,0.3,9.4,0.5,14c0,0.8,0.2,1.9-0.9,1.9c-1.2,0-0.7-1.1-0.8-1.8c-0.3-2.4-0.7-4.9-1.9-7.1
		c-2.3-4.4-6.7-4.6-9.4-0.5c-2,3.1-2.9,6.7-3.4,10.3c-1.1,7.7-1.2,15.3,1.1,22.9c0.4,1.4,1,2.7,1.8,3.9c1.1,1.7,2.4,3.3,4.7,3
		c2.4-0.4,4.1-2.7,4.3-5.4c0.1-1,0-2.1,0.1-3.1C1686.9,913.8,1686.9,912.7,1686.9,911.7C1686.9,911.7,1686.9,911.7,1686.9,911.7z"/>
	<path class="st1" d="M1724.6,909.2c-0.1,3.1-1,6.1-3.5,8.5c-3.3,3.2-8.2,2.9-11-0.8c-3.3-4.2-3.6-10.3-0.9-15
		c3.5-5.9,10.3-5.9,13.7,0.1C1724.1,904.2,1724.6,906.5,1724.6,909.2z M1718.8,909.2c0-3.4,0.1-6.4-1.4-9.2c-0.9-1.6-2-1.6-3.1-0.1
		c-0.9,1.3-1,2.8-1.2,4.3c-0.5,3.8-0.4,7.6,0.3,11.3c0.3,1.4,0.7,3,2.5,3.1c1.7,0,2-1.7,2.3-2.9
		C1718.8,913.4,1719,911.1,1718.8,909.2z"/>
	<path class="st1" d="M1736.9,989.9c6.1-1.2,12.2-2.3,17.9-4.5c5.7-2.2,10.9-5.4,16.1-8.7c2.5-1.6,2.6-4.2,2.7-6.8
		c0.1-3.3,1.6-5.7,4.1-7.7c0.3-0.2,0.7-0.3,1.6-0.8c-1.7,3.6,0,6.8-0.7,10c-0.3,1.1,0.3,1,1,1c3.3,0.1,6.5,1.3,10-0.2
		c-2,3.9-5.7,6.1-9.5,5.4c-4-0.7-7.3,0-10.7,2.4c-8.6,6-18.4,9.3-28.8,11.1C1739.2,991.6,1738.6,991.4,1736.9,989.9z"/>
	<path class="st1" d="M1721.4,989.9c-1.8,1.2-3,1.7-4.7,1.4c-11.2-1.9-21.4-6.1-30.7-12.6c-2.4-1.7-4.9-1.3-7.5-0.9
		c-4.6,0.8-7.7-1.4-10.2-5.1c3.2,1,6.4,0.1,9.5-0.1c1-0.1,1.6-0.1,1.4-1.4c-0.4-3,0.5-6.1-0.7-9.7c3.9,2.2,5.8,5.1,5.7,8.8
		c-0.1,3.8,1.8,5.8,4.7,7.8C1698.6,984.5,1709.2,988.3,1721.4,989.9z"/>
	<path class="st1" d="M1742.3,951.3c-2.7,0.2-5.5-1-8.2,0.1c-0.6,0.2-1.2,0.3-1.8,0.6c-1.6,0.7-2.5,1.2-1.5,3.7
		c1,2.5,2.9,3.7,4.1,5.7c0.5,0.8,1.3,0.7,2.1,0.7c3.8,0,7.6,0,11.4,0c0.8,0,1.5,0.1,2.3,0.1c0,0.2,0,0.4,0,0.6c-1.9,0-3.8,0-5.7,0
		c-2.5,0-4.9,0-7.4,0c-0.6,0-1.7-0.4-1.7,0.6c-0.1,1.3,1.1,0.9,1.8,0.9c7.9,0,15.9,0,23.8,0c1,0,2.1-0.3,3.1,0.3
		c-0.8,0.7-1.7,0.4-2.5,0.4c-7.8,0-15.6,0-23.4,0c-0.5,0-1,0-1.4,0c-0.6,0-1.4-0.1-1.4,0.8c0,1,0.8,0.8,1.4,0.8c3.7,0,7.3,0,11,0.1
		c0.8,0,1.7-0.3,2.5,0.6c-0.5,0.6-1.1,0.4-1.7,0.4c-3.2,0-6.4,0.1-9.5,0c-2.4,0-4.4,0.1-6.3,2.2c-2.4,2.7-7.1,2.2-9.5-0.7
		c-1.1-1.3-2.2-1.6-3.7-1.6c-3.6,0.1-7.2,0-10.7,0c-0.8,0-1.6,0.3-2.3-0.4c0.3-1.1,1.3-0.7,2-0.7c3.5,0,7,0,10.5-0.1
		c0.8,0,2.3,0.7,2.3-0.7c0-1.4-1.4-0.9-2.3-0.9c-8,0-16.1,0-24.1,0c-0.7,0-1.4,0.2-2.1-0.3c0.6-0.9,1.5-0.5,2.3-0.5
		c7.8,0,15.6,0,23.4,0c0.6,0,1.1,0,1.7,0c0.8,0,1.3-0.2,1.2-1c-0.1-0.8-0.8-0.6-1.3-0.6c-3.7,0-7.5,0-11.2,0c-0.8,0-1.6,0.3-2.4-0.4
		c1.3-0.6,2.5-0.3,3.8-0.3c2.1-0.1,4.4-0.4,6.4,0.1c3.9,0.8,6.5-1.4,8.8-3.7c1.1-1.1,0.8-3.2,1.8-4.7c0.3-0.3-0.5-0.7-0.9-1
		c-2.6-1.7-5.5-2.2-8.4-1.8c-4.7,0.7-9,2.7-13.2,5.4c2-0.2,3.3,3.2,5.7,0.7c0.2-0.3,0.7-0.1,0.8,0.2c0.1,0.2-0.1,0.7-0.3,0.8
		c-0.9,0.8-1.9,0.7-3.1,0.6c-2.3-0.3-4.2-2.5-6.8-1.2c-0.1,0.1-0.3,0-0.4-0.1c-2.3-2.2-2.6-2.3-5.1-2.3c-1.8,0-3.3,0.6-3.4,2.5
		c-0.1,1.8,1.5,2.6,3.1,3c1,0.2,2.1,0.2,3.7,0.3c-1.8,0.9-3.4,0.9-4.7,0.4c-1.7-0.6-3.3-1.4-3-3.7c0.3-2.1,1.7-3,3.5-3.2
		c2-0.3,4.1-0.2,5.8,0.6c2.1,1,3.7,0.5,5.5-0.5c4.5-2.4,9.1-4.5,14.3-4.4c2.5,0,4.7,0.6,6.8,1.9c0.9,0.5,1.4,0.8,2.5,0.1
		c3.7-2.4,7.8-2.4,11.9-1.3C1742.1,950.8,1742.2,951.1,1742.3,951.3L1742.3,951.3z M1722.8,964.9c0,3.4,2.7,6.1,6,6.1
		c3,0,6-2.8,6.2-5.8c0.3-3.5-2.4-6-5.7-5.4c-0.5,0.1-1,0.1-1.4-0.2c-1-0.9-1.8-0.2-2.5,0.3C1723.7,961.1,1722.8,962.8,1722.8,964.9z
		 M1728.8,957.8c0.6-0.1,1.6,0.4,1.5-0.9c-0.1-0.9-0.4-2-1.3-2c-1.2-0.1-1.4,1.2-1.6,2.1C1727.1,958.2,1728.2,957.7,1728.8,957.8z"
		/>
	<path class="st1" d="M1760.3,909.1c-0.2-3.3,0.6-6.6,3-9.2c2.9-3.2,7.2-3,9.8,0.5c0.7,0.9,1.3,2,1.7,3.1c1.4,4,0.9,4.7-3.2,4.7
		c-0.2,0-0.5,0-0.7,0c-2.1,0.2-4.5,0.7-5.2,2.7c-0.7,2,0.1,4.4,1.4,6.3c0.9,1.4,2.3,1.2,3.5,0.3c1.8-1.3,2.4-3.2,3-5.3
		c0.1-0.5-0.1-1.5,0.9-1.3c0.8,0.1,0.5,0.9,0.5,1.4c0,2.7-2.6,6.3-5.1,7.2c-2.4,0.8-5.4-0.3-7.3-2.7
		C1760.9,915,1760.3,912.9,1760.3,909.1z M1765.4,908.5c1.3-0.6,2.2-1,3.1-1.4c1-0.4,1.5-1.1,1.3-2.2c-0.3-1.5-0.6-3.1-0.9-4.6
		c-0.1-0.6-0.3-1.1-1-1.2c-0.7-0.1-0.9,0.6-1.1,1.1C1765.6,902.6,1765.4,905.4,1765.4,908.5z"/>
	<path class="st1" d="M1696.3,918.6c2.5-0.3,2.5-2,2.5-3.8c-0.1-3.3,0-6.7-0.1-10c0-1.1,0.8-2.8-1.5-3.1c-0.6-0.1-0.4-0.9,0.3-1.2
		c1.6-0.7,3.1-1.6,4.7-2.2c1.4-0.5,1.3,0.9,1.7,1.9c3.4-5.6,8.1-9,14.5-10c1.6-0.2,3.2-0.2,4.7,0.4c1.2,0.5,2.1,1.4,1.5,2.8
		c-0.6,1.4-1.9,1.5-3,0.7c-3.3-2.6-6.7-1.4-9.5,0.3c-5.1,3.1-8.6,7.4-8.3,13.9c0.1,2.5,0,5.1,0,7.6c0,1.2,0,2.3,1.6,2.3
		c0.3,0,0.6,0.2,0.6,0.5c0,0.4-0.2,0.6-0.6,0.6c-3,0-5.9,0-8.9,0C1696.5,919.1,1696.4,918.8,1696.3,918.6z"/>
	<path class="st1" d="M1757.7,901c0,4.8,0,9.7,0,14.5c0,1.3-0.1,2.6,1.8,2.7c0.4,0,0.8,0.2,0.6,0.8c-0.1,0.4-0.4,0.5-0.7,0.5
		c-2.5,0-4.9,0-7.4,0c-0.4,0-0.8-0.1-0.8-0.6c0-0.4,0.2-0.6,0.6-0.6c1.4-0.1,1.3-1.1,1.3-2.1c0-7.6,0-15.2,0-22.9
		c0-0.7,0.5-1.8-1.2-1.6c-1,0.1-0.6-0.9-0.1-1.3c1.8-1.5,3.2-3.3,4.2-5.4c0.2-0.5,0.6-0.7,1.2-0.5c0.7,0.3,0.6,0.9,0.6,1.4
		c0,4.6,0,9.2,0,13.8C1757.8,900,1757.8,900.5,1757.7,901C1757.8,901,1757.8,901,1757.7,901z"/>
	<path class="st1" d="M1782.9,909.5c0,2.1,0,4.1,0,6.2c0,1.2-0.1,2.5,1.7,2.5c0.3,0,0.6,0.2,0.6,0.6c0,0.5-0.4,0.6-0.8,0.6
		c-2.6,0-5.2,0-7.9,0c-0.3,0-0.6,0-0.7-0.5c-0.1-0.6,0.3-0.7,0.7-0.7c1.4-0.2,1.4-1.2,1.4-2.3c0-4,0-8.1,0-12.1c0-0.9,0.3-1.8-1.3-2
		c-1.2-0.2-0.6-0.9,0.2-1.3c2.9-1.5,6-2.3,9.2-2.2c1.9,0,3.3,1.1,4.1,2.8c0.8,1.8,0.9,3.7-0.1,5.5c-0.4,0.7-1.1,1.2-2,0.8
		c-0.9-0.3-1.1-1.1-1-1.9c0.1-0.7,0.3-1.4,0.6-2c0.5-1.2,0.6-2.3-0.4-3.3c-0.7-0.7-1.6-0.9-2.4-0.5c-1.1,0.5-1.8,1.6-1.8,2.9
		C1783,904.7,1783,907.1,1782.9,909.5C1783,909.5,1782.9,909.5,1782.9,909.5z"/>
	<path class="st1" d="M1804.5,873.7c-3.6-5.2-5.3-10.9-2.7-15.5c0.1-0.1,0.1-0.3,0.2-0.4c0.6-1,0.5-3,1.5-3c1.3,0,1.7,1.8,2.4,2.9
		c2.4,4,3,8.1,0.1,12.2C1805.1,871,1805.1,872.4,1804.5,873.7z"/>
	<path class="st1" d="M1653.3,873.9c-0.7-4.2-4.5-7.4-3.1-12.1c0.8-2.8,2.3-5.2,4-7.5C1658.4,860.8,1658.1,867.3,1653.3,873.9z"/>
	<path class="st1" d="M1649.5,885.2c-0.6-2.1-1.9-3.7-3.1-5.3c-2.9-3.8-1.3-9.6,0.8-13c0.9-1.3,1.1-0.1,1.5,0.4
		c3.8,4.8,4.2,10,2,15.6C1650.4,883.6,1650.7,884.6,1649.5,885.2z"/>
	<path class="st1" d="M1808.1,885.8c-3.2-7.2-3.8-13.7,1.8-19.3c3,3.1,4.1,9.4,1.8,13C1810.5,881.4,1808.8,883.1,1808.1,885.8z"/>
	<path class="st1" d="M1679.1,839.9c-1.9,7.3-6.8,11.8-13.8,14.3C1666.5,845.6,1672.1,839.8,1679.1,839.9z"/>
	<path class="st1" d="M1662.1,954.3c-2.3-1.1-4.7-1.1-6.9-1.5c-3.5-0.6-7.7-5.4-8.2-9.1c-0.1-0.7,0-0.9,0.9-0.9
		C1655.1,943.4,1659.5,946.9,1662.1,954.3z"/>
	<path class="st1" d="M1814.6,878.6c2.6,4.6,2.9,12-1.9,15.2c-0.2,0.1-0.3,0.4-0.5,0.5c-1,0.7-1.2,2.8-2.1,2.5
		c-1.3-0.4-0.7-2.4-0.9-3.6c-0.7-4.5-0.3-8.7,3.4-12C1813.2,880.5,1813.8,879.6,1814.6,878.6z"/>
	<path class="st1" d="M1801.8,943.4c1.3-7.3,5.8-12,12.5-13.2c1-0.2,1.1,0.2,0.9,1c-1.2,5.5-3.5,10-10,10.7
		C1804.2,942.1,1803.1,942.9,1801.8,943.4z"/>
	<path class="st1" d="M1778.5,839.7c9.2,1.4,12.4,6.5,13.9,13.2c0.3,1.2-0.3,1.2-1.2,0.8C1785.2,850.7,1782,849.1,1778.5,839.7z"/>
	<path class="st1" d="M1647.7,897.7c-0.9-2.3-2.3-3.8-3.8-5.2c-2.6-2.4-3.2-10.5-1.2-13.2c0.5-0.7,0.8-0.4,1.3,0.1
		C1649.2,884.8,1650.3,889.6,1647.7,897.7z"/>
	<path class="st1" d="M1810.2,909.5c-0.9-7.2,0.1-13.3,6.2-17.6c1-0.7,1.2-0.4,1.4,0.5c0.9,5.3,0.8,10.3-4.5,13.6
		C1812,906.8,1811.3,908.2,1810.2,909.5z"/>
	<path class="st1" d="M1806.3,932.4c-0.1-7,3.4-11.6,11.2-14.9c1.1,4.3-2,11.6-6.9,12.4C1808.9,930.2,1807.6,931.4,1806.3,932.4z"/>
	<path class="st1" d="M1656.2,943.8c-2.1-1.5-4-1.9-5.9-2.4c-4-1-8-6.3-7.8-10.3c0.1-1.4,0.9-0.7,1.5-0.6
		C1651.2,931.8,1654.3,936.9,1656.2,943.8z"/>
	<path class="st1" d="M1651.8,932.8c-2-2-4.1-2.6-6.1-3.5c-3.4-1.5-6.6-7.9-5.7-11.2c0.3-1.1,0.8-0.4,1.4-0.2
		C1648.3,920,1650.7,925.5,1651.8,932.8z"/>
	<path class="st1" d="M1639.2,904.6c7.7,2.9,9.7,8.9,9.6,16.7c-1.7-2.5-4.1-3.1-6-4.6C1638.9,913.6,1638.7,909.2,1639.2,904.6z"/>
	<path class="st1" d="M1818.7,904.4c0.3,4.2,0.2,8.2-2.9,11.6c-1,1.1-2.3,1.6-3.6,2.3c-1.2,0.6-2.1,1.6-3.2,2.8
		C1808.8,913.3,1811.2,907.5,1818.7,904.4z"/>
	<path class="st1" d="M1796,953.7c2.3-7,6.4-10.1,14.9-10.8C1809.3,951.3,1803.3,953.6,1796,953.7z"/>
	<path class="st1" d="M1665,843c0.8,7.3-1.5,14.6-6.1,19.4C1655.6,855.4,1657.9,848,1665,843z"/>
	<path class="st1" d="M1669.4,963.8c-2.3-0.6-4.3-0.8-6.4-0.7c-3,0.1-5.4-1.5-7.3-3.8c-1.2-1.5-2.4-3.1-3-5.1
		C1661.3,954.1,1665.1,956.2,1669.4,963.8z"/>
	<path class="st1" d="M1804.9,954.2c-1.3,4.9-6.3,9.9-11.7,8.8c-1.5-0.3-2.9,0.5-4.4,0.6C1791,957.5,1795.8,954.7,1804.9,954.2z"/>
	<path class="st1" d="M1704.7,879.4c-1.3,0.7-0.5,1.7-1.4,2.1c-0.7,0.1-0.6-0.5-0.8-0.9c-0.5-0.9-1.3-0.8-2.1-0.7
		c-1.1,0.2-0.8,1-0.8,1.7c0,1,0,1.9,0,2.9c-0.1,1.6-0.2,3.1,2.2,4c-2.5,0.6-4.3,0.5-6.5,0.2c3.4-2.2,1.9-5.2,1.9-7.9
		c0.1-1.6-1.5-0.9-2.4-0.6c-0.6,0.2-0.4,1.2-1.1,1.4c-0.9-2.2-0.6-2.8,1.5-2.9c3.4-0.2,6.8,0.3,10.2-0.4c1.8-0.4,1.5,1.2,1.5,2.2
		c0,1.1,0.2,1.4,1.4,1.3c1.9-0.2,3.1,0.8,3.2,2.9c0.1,1.1-0.4,2.4,0.7,3.3c0.3,0.3,0.2,0.9-0.3,0.9c-1,0.1-2.2,0.3-3-0.1
		c-1.2-0.5,0.4-1,0.3-1.7c0-0.4,0.1-0.8,0-1.2c-0.3-1,0.8-2.8-1.1-2.8c-1.7,0.1-1,1.8-1.2,2.9c0,0.2,0.1,0.5,0.1,0.7
		c-0.2,0.8,1.5,1.4,0.4,1.9c-0.9,0.5-2.2,0.2-3.3,0.2c-0.5,0-0.7-0.4-0.4-0.8C1705.5,885.4,1704.2,882.5,1704.7,879.4z"/>
	<path class="st1" d="M1792.7,842.9c7.1,5.4,9.4,10.6,6.2,19.6C1794,856.7,1792.1,850.1,1792.7,842.9z"/>
	<path class="st1" d="M1640.4,891.3c7.5,6.3,7.5,7.1,7,17.4C1639.8,903.1,1638.3,899.5,1640.4,891.3z"/>
	<path class="st1" d="M1654.6,874.2c0.9-3.3,2-6.5,4.7-8.8c2.9-2.5,6.5-1.3,10.1-1.9c-1.4,3.2-3,5.8-5.8,7.7
		C1660.8,873,1657.3,872.2,1654.6,874.2z"/>
	<path class="st1" d="M1788.5,863.8c11-1,12.5,3.4,14.8,10.7c-1.9-1.5-4-1.7-6-2.1C1792.6,871.4,1790.4,867.8,1788.5,863.8z"/>
	<path class="st1" d="M1806.6,885.7c-1.7-1.5-3.4-2.2-5.2-2.7c-4.2-1.3-6-4.8-7.3-8.7c-0.3-0.8,0-0.9,0.7-1
		C1801.8,873,1806.7,877.9,1806.6,885.7z"/>
	<path class="st1" d="M1650.7,886.3c0.8-3.9,1.3-7.2,3.6-9.9c2.4-2.8,5.6-2.5,8.7-3c0.8-0.1,0.8,0.6,0.6,1.2c-1.4,4-3.4,7.6-8,8.6
		C1653.9,883.6,1652.4,884.6,1650.7,886.3z"/>
	<path class="st1" d="M1781.7,852.8c7.8-0.4,13,3.2,16,10.1C1790.3,862.8,1784.9,859.4,1781.7,852.8z"/>
	<path class="st1" d="M1652.9,931.9c-1.3-3-2.5-5.9-1.9-9.3c0.6-3.6,3.4-5.2,5.8-7.1c0.9-0.7,1.1,0.3,1.2,0.8
		c0.8,4.1,0.8,8-2.5,11.2C1654.3,928.8,1653.4,930.2,1652.9,931.9z"/>
	<path class="st1" d="M1649,897.4c0.4-3.6,0-7.2,2.5-10.2c2.1-2.5,5.1-2.5,7.8-3.6c0.9-0.3,0.7,0.7,0.6,1.1
		c-0.8,4.1-2.3,7.8-6.5,9.5C1651.7,895,1650.4,896.1,1649,897.4z"/>
	<path class="st1" d="M1794.4,953.8c0.1-2.2-0.2-3.8-1.1-5.4c-2.1-4-1.3-7.8,0.7-11.5c0.7-1.3,1.1-0.6,1.7,0.1
		C1800.3,942.7,1800.6,946.1,1794.4,953.8z"/>
	<path class="st1" d="M1657.3,942.9c-1.5-2.2-2.7-4.6-3.2-7.1c-0.6-3.2,2.1-8.8,4.9-9.9c0.8-0.3,0.9,0.3,1.1,0.8
		c1.6,4.1,1.9,8.1-1.1,11.8C1657.9,939.8,1657.6,941.3,1657.3,942.9z"/>
	<path class="st1" d="M1676.1,852.7c-3.2,6.9-8.7,10.1-15.9,10.1C1662.8,856,1668.2,852.6,1676.1,852.7z"/>
	<path class="st1" d="M1808.5,896.7c-5.5-2.7-10.7-5.8-10.6-12.9C1805.2,883.7,1810,889.6,1808.5,896.7z"/>
	<path class="st1" d="M1650,920.9c-0.7-2.6-1.1-4.9-1-7.2c0.1-4.8,3.6-6.9,7.2-8.9c0.8-0.4,1,0.1,1,0.7c0.2,4.4,0,8.6-4.2,11.4
		C1651.6,917.7,1651,919.2,1650,920.9z"/>
	<path class="st1" d="M1787.3,962.9c0.4-2.3,0-4.3-0.6-6.4c-1-3.6,0.5-7.8,3.5-11C1794.8,952.1,1794.8,956,1787.3,962.9z"/>
	<path class="st1" d="M1808.8,914.7c0.2,1.4-0.4,2.9-0.5,4.5c0,0.4,0,0.8-0.5,1c-0.5,0.1-0.6-0.3-0.8-0.7c-0.6-1.3-1.7-2.2-2.8-3.2
		c-3.5-2.9-3.9-6.9-3.3-11c0.1-0.6,0.3-0.7,0.9-0.5C1806.4,906.6,1808.7,909.9,1808.8,914.7z"/>
	<path class="st1" d="M1663.2,953.6c-6-7.5-6-11.3-0.1-17.7c2.5,4.1,3.9,8.2,1.3,12.7C1663.6,950,1663.3,951.6,1663.2,953.6z"/>
	<path class="st1" d="M1657.6,893.9c0.1,4.6-0.7,8.6-4.7,11.2c-1.5,1-2.8,2.2-3.8,3.9C1646.3,902.5,1649.4,897.1,1657.6,893.9z"/>
	<path class="st1" d="M1800.4,915.3c7.1,4.4,8.3,8.4,4.7,16.4C1801.6,926.8,1797.1,922.2,1800.4,915.3z"/>
	<path class="st1" d="M1670.2,962.6c-2-1.8-3.8-3.6-5-6c-1.5-3.2-0.6-8.3,1.8-10.7c0.6-0.6,0.9-0.2,1.3,0.3
		c2.4,3.5,4.2,7.1,2.4,11.5C1670,959.3,1670,960.9,1670.2,962.6z"/>
	<path class="st1" d="M1798.2,925.4c7.8,6.6,5.9,11.7,2.4,17.3c-0.6-2.2-1.7-3.9-2.8-5.7C1795.5,933.1,1796.7,929.3,1798.2,925.4z"
		/>
	<path class="st1" d="M1676.5,970.9c-6.9,2.4-12.4,0.4-16.3-5.9C1666.1,962.8,1672.9,965.3,1676.5,970.9z"/>
	<path class="st1" d="M1808.9,909.3c-1.2-2.1-2.6-3.4-4.4-4.4c-2.5-1.5-3.5-4.2-4.1-7c-0.3-1.3-0.2-2.6-0.3-4
		C1808,895.9,1810.5,900.2,1808.9,909.3z"/>
	<path class="st1" d="M1797.5,964.9c-3.5,6.2-7.6,7.7-16.4,6.2C1785.1,965.2,1790.6,963.3,1797.5,964.9z"/>
	<path class="st1" d="M1779.8,970.4c0.8-2.2,0.2-4.2,0-6.2c-0.5-3.9,1.8-6.6,3.9-9.4c0.3-0.5,1-0.9,1.1,0.1c0.2,2,1.5,3.6,1.5,5.7
		C1786.4,964.3,1784.6,967.2,1779.8,970.4z"/>
	<path class="st1" d="M1673.2,954.2c5.3,4.2,5.5,9.7,4.2,15.7c-2.5-1.6-4.7-3.7-5.7-6.8C1670.6,959.8,1672.7,957.2,1673.2,954.2z"/>
	<path class="st1" d="M1727.7,932.4c0,1.3,0.4,2.7-1.9,1.9c-0.8-0.3-2.2,0.5-3.4,0.5c-3.7-0.1-6.3-2.5-6.3-5.9
		c0-3.7,2.8-6.4,6.4-6.5c1.4,0,2.7,0.9,4.1,0.4c0.6-0.2,0.9,0.4,0.8,0.9c-0.3,1,0.2,2.2-0.6,2.9c-0.7,0.5-0.8-0.5-1.1-0.9
		c-0.9-1.3-2-2.1-3.6-1.7c-1.6,0.4-2.5,1.6-2.6,3.3c0,1-0.1,2.1,0,3.1c0.1,1.6,1.1,2.6,2.6,3c1.6,0.4,2.7-0.3,3.7-1.4
		c0.4-0.5,0.4-1.7,1.3-1.4C1728.2,930.6,1727.5,931.7,1727.7,932.4z"/>
	<path class="st1" d="M1712,942.8c-1.4,0-2.8,0-4.3,0c-0.6,0-1.5,0.4-1.8-0.6c-0.3-1,0.5-1.4,1.3-1.7c0.2-0.1,0.4-0.2,0.5-0.5
		c-0.8,0.3-1.4,0.4-2.2,0.3c-0.9-0.1-1.5,0.4-1.1,1.3c0.5,1.4-0.3,1.3-1.2,1.3c-1.4,0-2.9,0.1-4.3,0c-1.3-0.1-1.9-1-2-2.3
		c-0.1-1.3,0.2-2.4,1.5-2.9c1.1-0.5,2.3-0.6,3.4,0.1c0.2,0.2,0.1,0.9,0.2,1.5c-1.1-0.4-1.9-2.2-3-0.5c-0.5,0.8-0.5,1.9,0.1,2.7
		c0.7,0.9,1.5,0.6,2.2-0.2c0.7-0.8,1.1-0.3,1.3,0.4c0.9-0.9-0.5-2.4,0.5-2.6c1.6-0.4,3.5-0.5,5.2-0.2c1.2,0.2,1.7,0,2.3-1
		c0.5-0.8,1.2-1.4,2.1-1c1,0.4,1.8,1.5,1.8,2.2c0,1-0.4,2.1,0.2,3.1c0.2,0.4-0.3,0.5-0.5,0.5c-0.7,0-1.2-0.1-1.4-0.9
		c-0.2-0.7,0.4-2.4-0.6-2.1C1710.7,940.2,1712,941.6,1712,942.8z"/>
	<path class="st1" d="M1729.1,830.5c0,1.6,0,3.3,0,4.9c0.2,12.4,0.3,24.7,0.5,37.1c0,0.5,0,1,0,1.4c0,0.7,0.1,1.5-1,1.5
		c-1,0-1.1-0.7-1-1.5c0.1-2,0.3-4,0.3-5.9c-0.2-12.1,0.6-24.1,0.6-36.1c0-0.5,0.1-0.9,0.1-1.4
		C1728.7,830.5,1728.9,830.5,1729.1,830.5z"/>
	<path class="st1" d="M1781,930.2c-1.1,0.2-2.2,0.2-3.4,0c0.5-0.9,1.5-0.3,2.2-1.3c-11.7,0-23,0-34.3,0c0.8-1.2,1.9-1,2.8-1
		c10.7,0,21.4-0.1,32.1,0c2.8,0,5.3-1.8,8.1-1.2c0.7,0.2,0.8,0.1,0.9,1.1c-2-0.4-3.9,0-5.6,1C1783,929.4,1782.1,930,1781,930.2z"/>
	<path class="st1" d="M1668.4,927.9c-0.5-0.5-0.4-1,0.2-1c1.3-0.1,2.8-0.5,4,0.1c2.4,1.1,4.9,1,7.5,1c9.9,0,19.8,0,29.7,0
		c0.9,0,1.9-0.2,3.1,0.9c-11.8,0-23.2,0-34.6,0c0.4,1.2,1.5,0.5,2.1,1.3c-1.3,0.2-2.5,0.4-3.6-0.3c-1-0.1-1.9-0.4-2.8-0.9
		C1672.2,928,1670.4,927.3,1668.4,927.9z"/>
	<path class="st1" d="M1739.6,833.7c-0.5,3.3-1,6.6-1.5,9.9c-1.4,8.7-2.8,17.5-4.2,26.2c-0.2,1.2-0.3,2.5-0.6,3.7
		c-0.2,0.7-0.4,1.7-1.5,1.4c-1-0.3-0.5-1.2-0.4-1.8c1-5.5,2.1-11,3.2-16.5c1.5-7.7,3-15.3,4.4-23
		C1739.2,833.7,1739.4,833.7,1739.6,833.7z"/>
	<path class="st1" d="M1726.2,875.2c-3-1.4-2.7-4.1-3-6.2c-1.9-11-3.6-22-5.3-33c0-0.3,0.1-0.6,0.6-0.9
		C1721,848.4,1723.6,861.7,1726.2,875.2z"/>
	<path class="st1" d="M1733.3,934.7c-2.7,0-4.6-1.7-4.7-4.3c-0.1-2.5,2.1-4.6,4.7-4.6c2.4,0,4.7,2.1,4.7,4.4
		C1738.1,932.7,1736.1,934.7,1733.3,934.7z M1735.1,930.5c0-1.4,0-3-1.8-3c-1.6,0-1.7,1.5-1.8,2.9c0,1.4,0.3,2.8,1.8,2.8
		C1734.9,933.3,1735.1,931.8,1735.1,930.5z"/>
	<path class="st1" d="M1749.1,838.4c-0.3,2.5-1.3,4.6-2.1,6.7c-3.2,9.3-6.5,18.6-9.8,28c-0.1,0.2-0.1,0.5-0.2,0.7
		c-0.2,0.9-0.9,1.2-1.6,0.9c-0.9-0.3-0.4-1-0.2-1.6c1.3-3.4,2.6-6.8,3.9-10.2c2.9-7.5,5.7-15.1,8.6-22.6
		C1748.1,839.7,1748.2,839,1749.1,838.4z"/>
	<path class="st1" d="M1739.8,942.8c1-1.1,1.1-2,1-3c-0.1,0.1-0.2,0.1-0.3,0.1c-0.7,0.8-0.5,2.6-1.7,2.7c-1.3,0.1-0.9-1.8-1.8-2.4
		c-1.1,0.5,1.7,3.3-1.7,2.5c0.8-1.3,0.7-2.6,0.5-4c0-0.4-1-1,0-1.3c0.6-0.2,1.4-0.4,1.9,0.5c0.4,0.7,0.7,1.4,1.1,2.1
		c1-0.3,1-1.2,1.3-1.8c0.4-0.8,1-1,1.8-0.8c1.3,0.2,0.2,1,0.2,1.4c0.1,1,0,2,0,3.6c0.8-0.9,1.8-1,1.3-2c-0.4-1,0.1-1.3,0.9-1.5
		c0.9-0.2,1.6,0.1,2,0.9c0.2,0.3,0.1,0.8,0.1,1.2c0.1,0.4-0.1,1.1,0.6,1c0.7-0.1,0.6-0.8,0.5-1.1c-1.1-2.5,0.9-1.8,2-2
		c0.3-0.1,0.7,0.1,0.7,0.5c0,0.2-0.1,0.6-0.1,0.6c-2.3-0.3,0.2,3.4-2.6,3C1745,942.5,1742.7,942.8,1739.8,942.8z"/>
	<path class="st1" d="M1756.2,845.8c0.3,1.8-0.7,2.9-1.4,4.2c-4.3,7.8-8.6,15.5-12.9,23.2c-0.1,0.2-0.2,0.4-0.3,0.6
		c-0.4,0.8-1,1.7-2,1.1c-1.1-0.6,0-1.4,0.3-1.9c3.9-6.5,7.8-13,11.7-19.6C1753.1,850.9,1754.7,848.4,1756.2,845.8z"/>
	<path class="st1" d="M1765.8,850.6c-3.1,3.8-6.1,7.6-9.2,11.4c-3.4,4.3-6.9,8.5-10.3,12.8c-0.3,0.4-0.7,0.8-1.1,1.2
		c-0.5,0.5-1,0.8-1.6,0.2c-0.6-0.6-0.1-1,0.3-1.4c1.7-2.1,3.5-4.1,5.3-6.1c5.1-5.9,10.2-11.7,15.3-17.6c0.3-0.3,0.7-0.6,1-0.9
		C1765.5,850.3,1765.7,850.4,1765.8,850.6z"/>
	<path class="st1" d="M1709.5,840.7c1.8,4.8,3.6,9.5,5.4,14.3c1.9,5.1,3.9,10.1,5.9,15.2c0.2,0.6,1.1,1.6,0.1,2
		c-0.9,0.4-1.5-0.5-1.8-1.4c-2.7-8-5.6-15.9-8.3-23.9C1710.1,845,1709.1,843.1,1709.5,840.7z"/>
	<path class="st1" d="M1773.8,856.8c-2.7,2.3-5.4,4.7-8,7c-5.3,4.6-10.7,9.2-16,13.9c-0.4,0.3-0.7,0.6-1.1,0.9
		c-0.6,0.5-1.1,0.6-1.6-0.1c-0.5-0.7,0.2-1,0.6-1.3c2.8-2.3,5.6-4.7,8.5-7c5.3-4.3,10.6-8.6,15.9-12.9c0.5-0.4,1-0.7,1.5-1
		C1773.6,856.5,1773.7,856.7,1773.8,856.8z"/>
	<path class="st1" d="M1778.6,865.8c-2.5,1.5-5,3.1-7.6,4.6c-6.1,3.7-12.2,7.3-18.4,11c-0.4,0.2-0.8,0.5-1.2,0.7
		c-0.5,0.3-1,0.6-1.4-0.1c-0.5-0.7,0.1-1.2,0.7-1.5c2.6-1.4,5.1-2.9,7.7-4.3c6.2-3.4,12.3-6.8,18.5-10.2c0.5-0.3,1-0.5,1.5-0.7
		C1778.4,865.4,1778.5,865.6,1778.6,865.8z"/>
	<path class="st1" d="M1715.8,870.6c-1.5-0.1-2.2-0.5-2.8-1.5c-4.8-8.7-9.6-17.3-14.4-25.9c-0.1-0.1,0-0.3,0.1-1.1
		C1704.6,851.8,1710.1,861.1,1715.8,870.6z"/>
	<path class="st1" d="M1705.9,893.8c-0.6,1.4-1.1,1.9-2,1.9c-8.7-0.2-17.4,0.2-26.2-0.6c-0.1,0-0.2-0.2-0.8-0.7
		c5.2,0,10.1,0.8,14.6,0.2C1696.2,894,1700.8,894.4,1705.9,893.8z"/>
	<path class="st1" d="M1719.5,887c-1.4,2-3.5,2.4-5.2,1.3c-1.6-1.1-2-3.3-0.9-5c1.1-1.7,3.3-2.3,5-1.2c0.8,0.5,1.2,1.2,1.1,2.2
		c-0.1,1.1-1,0.8-1.6,0.9c-0.9,0.1-2-0.5-2.6,0.6c-0.2,0.4,0,0.9,0.4,1.3c0.9,1.1,1.8,0.6,2.8,0.1C1718.7,887,1719,887.1,1719.5,887
		z"/>
	<path class="st1" d="M1790.7,894.3c-8,0.5-15.9,0.3-23.8,0.4c-1.7,0-3.3,0.2-5,0.2c-0.7,0-1.7,0.2-1.7-0.8c-0.1-1.1,1-0.8,1.6-0.8
		C1771.5,893.4,1781.1,893.2,1790.7,894.3z"/>
	<path class="st1" d="M1788.6,883.9c-6.3,1.2-12.4,2.4-18.4,3.6c-2.8,0.5-5.6,1.1-8.4,1.6c-0.6,0.1-1.4,0.5-1.6-0.4
		c-0.3-1.1,0.7-1,1.4-1.1c5.8-0.9,11.5-1.9,17.3-2.8c2.4-0.4,4.8-0.8,7.2-1.2C1786.9,883.5,1787.6,883.1,1788.6,883.9z"/>
	<path class="st1" d="M1756.8,960.3c1.7,0.1,3.4,0.8,5.2,0.3c1.6-0.4,3.2-1,3.1-3c-0.1-2-1.6-2.5-3.4-2.5c-1.9,0-3.7,0.4-5.5,1.1
		c0.2,0.9,1.3,0.7,1.5,1.6c-1.7,0.1-3.5-1.9-5.1,0.1c-1.6,0.1-3,1-4.6,0.7c4.8-2.3,9.6-4.8,15.2-4.1c1.7,0.2,2.9,1.3,3.1,3.2
		c0.2,1.8-0.9,2.9-2.4,3.4C1761.4,961.8,1759,961.9,1756.8,960.3z"/>
	<path class="st1" d="M1783.3,874.7c-3.8,1.4-7,2.7-10.2,3.9c-4.1,1.5-8.1,3.1-12.2,4.6c-0.6,0.2-1.3,0.5-1.5-0.4
		c-0.2-0.8,0.5-0.8,1-1c7.2-2.5,14.5-5,21.7-7.5C1782.1,874.4,1782.3,874.5,1783.3,874.7z"/>
	<path class="st1" d="M1712.8,931.3c-0.7,1.2-1.6,0.9-2.3,0.9c-6.9,0-13.8,0-20.6,0c-0.5,0-1,0-1.4-0.1c-0.2,0-0.4-0.3-0.4-0.5
		c-0.1-0.4,0.2-0.6,0.5-0.6c0.3,0,0.6,0,0.9,0c7.4,0,14.7,0,22.1,0C1711.9,931.1,1712.2,931.2,1712.8,931.3z"/>
	<path class="st1" d="M1745.2,931.5c0.6-0.6,1.1-0.5,1.7-0.5c7.1,0,14.2,0,21.4,0c0.6,0,1.7-0.4,1.7,0.6c0,1-1.1,0.5-1.8,0.5
		c-6.9,0-13.8,0-20.7,0C1746.8,932.2,1745.9,932.4,1745.2,931.5z"/>
	<path class="st1" d="M1700.1,926.1c-3.5,0-7,0-10.5,0c-0.6,0-1.5,0.3-1.6-0.6c-0.1-1,0.9-0.7,1.5-0.7c7.1,0,14.3,0,21.4,0
		c0.5,0,1.5-0.3,1.4,0.6c-0.1,0.8-1,0.6-1.6,0.6C1707.3,926.1,1703.7,926.1,1700.1,926.1z"/>
	<path class="st1" d="M1757.6,924.8c3.7,0,7.4,0,11.2,0c0.4,0,1.1-0.1,1.2,0.5c0.1,0.8-0.7,0.7-1.2,0.7c-7.4,0-14.7,0-22.1,0
		c-0.5,0-1.3,0-1.2-0.8c0.1-0.6,0.7-0.5,1.2-0.5C1750.3,924.8,1753.9,924.8,1757.6,924.8z"/>
	<path class="st1" d="M1730,941.1c-1,2-2.3,2.3-3.7,0.8c-0.1-0.1-0.2-0.3-0.2-0.4c-0.4-0.9-1.2-0.6-1.8-0.6c-0.4,0-0.5,0.3-0.3,0.7
		c0.4,0.8,1.1,0.2,1.9,0.4c-0.9,1.2-2,1.1-2.9,0.5c-1-0.7-0.9-1.8-0.3-2.8c0.6-0.9,1.6-1.3,2.7-0.6c0.7,0.4,1.1,0.5,1.9,0.1
		c1.6-0.9,2.7-0.3,2.9,1.5C1730,940.8,1730,941,1730,941.1z"/>
	<path class="st1" d="M1716.9,942.5c0.6-1.1,0.4-2.3,0.4-3.4c0-0.8-0.8-2,1-1.8c1.3,0.1,2.8-0.3,3.1,1.7c0.1,0.5-0.1,0.9,0.2,1.4
		c0.8,1.8-0.2,2.5-1.8,2.5C1718.9,942.8,1717.9,943,1716.9,942.5z"/>
	<path class="st1" d="M1754.7,942.1c-1.2,1.4-2.8,0.5-4.3,0.5c-0.4,0-0.1-0.5-0.1-0.8c0-1.1,0-2.2,0.1-3.3c0-0.6-0.5-1.6,0.6-1.7
		c1.1-0.1,0.9,0.8,0.9,1.5c0,0.4,0,0.8,0.1,1.3c0.3-1.1,1-1.2,1.7-0.8c0.9,0.5-0.1,0.8-0.3,1.2
		C1753.1,941.2,1754,941.7,1754.7,942.1C1754.8,942.2,1754.7,942.1,1754.7,942.1z"/>
	<path class="st1" d="M1716.3,953.7c1.8-0.9,3.6-1.3,5.4-0.7c1.7,0.6,2.4,1.9,2.3,3.7c-0.1,1.6-1.1,2.4-2.5,2.7
		c-0.6,0.2-1.3,0.1-1.7-0.5c-0.3-0.5-0.3-1,0.1-1.3c0.6-0.5,1.1-0.4,1.6,0.3c0.8,0.9,1,0,1.2-0.5c0.6-1.7-0.4-3.3-2.4-3.6
		C1718.9,953.6,1717.6,953.7,1716.3,953.7z"/>
	<path class="st1" d="M1668.4,927.9c2-0.5,3.9,0.1,5.5,1.1c0.9,0.5,1.8,0.8,2.8,0.9c0.6,0.8,1.5,0.8,2.9,0.9c-2.4,0.9-4,0.7-5.6-0.3
		c-1.8-1.1-3.7-1.8-5.8-1.8l0.1,0C1668.4,928.5,1668.4,928.2,1668.4,927.9z"/>
	<path class="st1" d="M1735.8,959.1c-1.9-0.7-2.3-1.9-2.2-3.3c0.2-1.5,1.2-2.4,2.6-2.7c2.9-0.7,5.6,0.1,8.2,1.3
		c-2,0.1-3.8-0.8-5.8-0.7C1735.2,953.8,1734.1,955.6,1735.8,959.1z"/>
	<path class="st1" d="M1781,930.2c1.1-0.2,2-0.8,2.9-1.3c1.7-1,3.6-1.4,5.6-1c0,0.3,0,0.6,0,0.9l0.1,0c-2-0.1-3.8,0.5-5.5,1.6
		c-1.6,1.1-3.3,1.3-5.5,0.7C1779.6,930.7,1780.3,930.5,1781,930.2z"/>
	<path class="st1" d="M1700,863.4c0.1,0.4,0.2,0.8,0.3,1.2c-2.2-0.4-2.7-2.5-3.9-3.9c-1.7-1.9-2.9-4.2-3.6-6.7
		C1695.5,857,1696.8,860.9,1700,863.4z"/>
	<path class="st1" d="M1730,941.1c0-0.1,0-0.3,0-0.4c-0.2-2.1,1.4-1.8,2.7-2c0.2,0,0.6,0.1,0.6,0.2c0.1,0.3,0,0.8,0,0.8
		c-2.1,0,0,2.9-2,3C1730.1,942.8,1730.1,941.9,1730,941.1z"/>
	<path class="st1" d="M1681.6,867.1c3.3,1.8,6.6,3.6,9.9,5.5c-0.1,0.2-0.3,0.5-0.4,0.7c-3.7-1.2-6.6-3.6-9.9-5.5
		C1681.4,867.5,1681.5,867.3,1681.6,867.1z"/>
	<path class="st1" d="M1757.7,939c1.4,2.2-0.5,1.8-1.6,2.1c-0.1,1.6,1.2,0.6,2,1.1c-1.2,0.9-2.3,1-3.4,0c0,0,0,0.1,0,0.1
		C1754.3,939.3,1755.1,938.5,1757.7,939L1757.7,939z"/>
	<path class="st1" d="M1769.3,940.6c-2.4,0-4.8,0-7.3,0c2.4-1,4.8-0.8,7.2-0.7C1769.3,940.2,1769.3,940.4,1769.3,940.6z"/>
	<path class="st1" d="M1679.5,886.1c2.3-0.5,4.4,0.4,6.6,0.7c0.3,0,0.6,0.3,0.5,0.6c-0.1,0.5-0.5,0.6-0.9,0.5
		C1683.7,887.2,1681.4,887.4,1679.5,886.1z"/>
	<path class="st1" d="M1688.5,940.6c1.7-0.9,5.2-0.9,7.4-0.1C1693.2,941.1,1690.8,940.7,1688.5,940.6z"/>
	<path class="st1" d="M1684.6,911c-2,1.5-4.2,2.1-6.6,2.5C1679.9,912,1682.2,911.2,1684.6,911z"/>
	<path class="st1" d="M1740.4,932c0.9,0,1.3,0.6,1.3,1.3c0,0.8-0.4,1.3-1.3,1.3c-0.9,0-1.3-0.6-1.3-1.3
		C1739,932.6,1739.5,932.1,1740.4,932z"/>
	<path class="st1" d="M1757.7,939c0.6,0.1,1-0.5,1.5-0.5c0.8-0.1,1.9-0.3,1.1,1.2c-0.3,0.5-0.1,1.2-0.2,1.8c-0.1,0.4,1.5,0.9,0,1.2
		c-0.9,0.2-1.3-0.3-1.3-1.2C1758.9,940.5,1759,939.4,1757.7,939C1757.7,939,1757.7,939,1757.7,939z"/>
	<path class="st1" d="M1672.2,874.2c2.5,0.5,5,1.2,7.2,2.5C1676.7,876.7,1674.5,875.3,1672.2,874.2z"/>
	<path class="st1" d="M1693,873.4c1.5,0.8,2.9,1.6,4.4,2.4c-2.3,0.7-3.6-0.3-4.8-1.8C1692.7,873.8,1692.9,873.6,1693,873.4z"/>
	<path class="st1" d="M1742.3,951.3c2.8-0.4,4.9,1.2,7.1,2.3c-0.1,0.2-0.1,0.4-0.2,0.6C1746.9,953.2,1744.6,952.2,1742.3,951.3
		C1742.3,951.3,1742.3,951.3,1742.3,951.3z"/>
	<path class="st1" d="M1789.6,928.8c1.2,1.2,0.7,2.1-0.7,2.5c-1.2,0.3-2.5,0.4-3.6-0.9C1787,930.3,1789.1,931.5,1789.6,928.8
		C1789.6,928.8,1789.6,928.8,1789.6,928.8z"/>
	<path class="st1" d="M1668.3,928.8c0.5,2.6,2.4,1.8,4.7,1.4c-1.8,1.7-3.2,1.6-4.6,0.9C1667.5,930.5,1667.4,929.6,1668.3,928.8
		C1668.4,928.8,1668.3,928.8,1668.3,928.8z"/>
	<path class="st1" d="M1729.9,963.9c-0.8,0.9-0.5,1.5-0.6,2.1c-0.2,0.8-0.4,1.6-1.5,1.5c-1-0.1-1.2-0.8-1.4-1.7
		c-0.5-3,0.5-3.7,4.4-3.2c0.1,0,0.3,0.3,0.3,0.3c2.1-1.2,2.2,0.7,2.6,1.8c0.3,0.8,0.4,1.7-0.3,2.5c-0.9,0.9-1.8,0-2.7,0
		c-0.8,0.1-0.5-1-0.6-1.5C1730,965.2,1730,964.7,1729.9,963.9z"/>
	<path class="st1" d="M1726.2,964.2c-0.1,0.8-0.9,1.6-0.2,2.6c0.3,0.4-0.2,0.7-0.6,0.7c-0.5,0-1,0-1.3-0.3c-0.4-0.2-0.2-0.7,0-1
		c0.3-0.5,0.8-1,0.9-1.6c0.3-1.3-0.9,0-1.1-0.6c-0.1-0.4-0.1-0.8,0.1-1.1c0.4-0.5,1-0.4,1.5-0.3
		C1726.4,962.8,1726.2,963.5,1726.2,964.2z"/>
</g>
</svg>
